/* XPM */
static char *result[] = {
/* columns rows colors chars-per-pixel */
"16 16 31 1 ",
"  c #6E38E5",
". c #BBA1F3",
"X c #F7F4FE",
"o c #7440E6",
"O c #C0A9F4",
"+ c #EBE4FB",
"@ c #8558E9",
"# c #7C4CE8",
"$ c #CBB7F6",
"% c #966FEC",
"& c white",
"* c #703AE5",
"= c #8253E9",
"- c #FBFAFE",
"; c #7B4AE7",
": c #F1ECFD",
"> c #8152E8",
", c #CEBCF6",
"< c #885BEA",
"1 c #7947E7",
"2 c #6E3AE5",
"3 c #8254E9",
"4 c #BCA4F3",
"5 c #713DE6",
"6 c #C3ACF4",
"7 c #CDBAF6",
"8 c #865AE9",
"9 c #BDA5F3",
"0 c #723DE6",
"q c #FDFBFF",
"w c #C1ABF5",
/* pixels */
"                ",
" 5===*1==; >>>55",
" 3&&&*4&&, X&&3 ",
" 3&&&*.&&7 X&&3 ",
" =&&&*.&&7 :--3 ",
" =&&&*.&&$      ",
" =&&&*.&&+6OOO# ",
" =&&&*.&&&&&&&< ",
" =&&& O&&&&&&&< ",
" =&&&0%.......; ",
" =&&&@o         ",
" =&&&---------@ ",
" 3&&&&&&&&&&&&8 ",
" 3&&&&&&&&&&&&8 ",
" 5============00",
"                "
};
