/* XPM */
static char *result[] = {
/* columns rows colors chars-per-pixel */
"16 16 168 2 ",
"   c #059C9C",
".  c #059D9D",
"X  c #059E9E",
"o  c #069E9E",
"O  c #0BA1A1",
"+  c #0AA3A3",
"@  c #0CA1A1",
"#  c #0DA1A1",
"$  c #0EA3A3",
"%  c #0CA4A4",
"&  c #0EA5A5",
"*  c #13A6A6",
"=  c #14A7A7",
"-  c #15A7A7",
";  c #18A7A7",
":  c #14A8A8",
">  c #1EAEAE",
",  c #20AEAE",
"<  c #21AFAF",
"1  c #20B0B0",
"2  c #40C4C4",
"3  c #42C6C6",
"4  c #42C7C7",
"5  c #44C7C7",
"6  c #45C7C7",
"7  c #49C2C2",
"8  c #4FC3C3",
"9  c #45C8C8",
"0  c #4ACBCB",
"q  c #57CFCF",
"w  c #50D0D0",
"e  c #51D0D0",
"r  c #57D3D3",
"t  c #53D4D4",
"y  c #58D0D0",
"u  c #5AD4D4",
"i  c #59D6D6",
"p  c #5AD6D6",
"a  c #5CD5D5",
"s  c #58D8D8",
"d  c #5FDDDD",
"f  c #7ECECE",
"g  c #66D1D1",
"h  c #62D4D4",
"j  c #66D5D5",
"k  c #64D7D7",
"l  c #6BD3D3",
"z  c #6CD0D0",
"x  c #68D5D5",
"c  c #64D9D9",
"v  c #66D9D9",
"b  c #61DDDD",
"n  c #62DFDF",
"m  c #64DCDC",
"M  c #67DEDE",
"N  c #68DBDB",
"B  c #6CD8D8",
"V  c #68DEDE",
"C  c #69DEDE",
"Z  c #68DFDF",
"A  c #6EDCDC",
"S  c #6FDFDF",
"D  c #71D2D2",
"F  c #70D6D6",
"G  c #74D6D6",
"H  c #78D5D5",
"J  c #7CD4D4",
"K  c #7DD7D7",
"L  c #72D8D8",
"P  c #7EDADA",
"I  c #7BDFDF",
"U  c #7DDEDE",
"Y  c #69E2E2",
"T  c #68E3E3",
"R  c #6EE1E1",
"E  c #6CE3E3",
"W  c #6FE2E2",
"Q  c #6FE3E3",
"!  c #72E0E0",
"~  c #76E2E2",
"^  c #72E4E4",
"/  c #74E6E6",
"(  c #76E6E6",
")  c #7AE5E5",
"_  c #79E6E6",
"`  c #7AE6E6",
"'  c #7CE6E6",
"]  c #7FE6E6",
"[  c #74E8E8",
"{  c #76E9E9",
"}  c #7AEAEA",
"|  c #7BEAEA",
" . c #7DE8E8",
".. c #7EE9E9",
"X. c #80D6D6",
"o. c #85D6D6",
"O. c #88D2D2",
"+. c #8CD6D6",
"@. c #8DD7D7",
"#. c #88D8D8",
"$. c #88DBDB",
"%. c #8DDADA",
"&. c #97DBDB",
"*. c #99DADA",
"=. c #9BDCDC",
"-. c #9ADDDD",
";. c #9EDCDC",
":. c #A2DEDE",
">. c #A5DFDF",
",. c #A7DFDF",
"<. c #A8DBDB",
"1. c #AADDDD",
"2. c #ABDEDE",
"3. c #B0DFDF",
"4. c #85E3E3",
"5. c #81E6E6",
"6. c #8DE1E1",
"7. c #86E8E8",
"8. c #89EBEB",
"9. c #8CEBEB",
"0. c #8FEEEE",
"q. c #8FEFEF",
"w. c #92E7E7",
"e. c #98E0E0",
"r. c #9AF4F4",
"t. c #AFE0E0",
"y. c #AEE2E2",
"u. c #B0E0E0",
"i. c #B1E2E2",
"p. c #B4E0E0",
"a. c #B4E2E2",
"s. c #BEE3E3",
"d. c #BAE4E4",
"f. c #BAE6E6",
"g. c #BFE5E5",
"h. c #BDE6E6",
"j. c #AAF7F7",
"k. c #B8FFFF",
"l. c #C2E3E3",
"z. c #C4E6E6",
"x. c #C4E8E8",
"c. c #C8E9E9",
"v. c #CCECEC",
"b. c #D4EBEB",
"n. c #D5ECEC",
"m. c #D4EDED",
"M. c #D6EDED",
"N. c #D9EEEE",
"B. c #DCEFEF",
"V. c #E3EFEF",
"C. c #E4ECEC",
"Z. c #E6F2F2",
"A. c #E4F4F4",
"S. c #E5F4F4",
"D. c #E8F3F3",
"F. c #EBF3F3",
"G. c #EAF5F5",
"H. c #EBF6F6",
"J. c #F3F9F9",
"K. c #F4F9F9",
"L. c #F4FAFA",
"P. c #F6FBFB",
"I. c #FCFBFB",
"U. c #FBFEFE",
"Y. c #FDFCFC",
"T. c #FFFDFD",
"R. c white",
"E. c None",
/* pixels */
"E.E.E.E.E.X @ + * @ . E.E.E.E.E.",
"E.E.E.. ; 7 y O.c W a , . E.E.E.",
"E.E.. 4 L s.0 b.l m Z / 6 o E.E.",
"E.. 3 T q n.@.A.Z.m.1.j } 5 . E.",
"E.1 h <.N.U.G.y.:.S.R.2.V ( < E.",
". p B +.f.R.;.5.r.H T.x.S  .u . ",
"O V ` | F I.c.4.w.>.R.f N ..C @ ",
"- R ' 0.I M.L.t.l.F.Y.P.p.v ^ : ",
"= R ' 9.5.i.R.d.e.6.#.H.R.X.Y - ",
"@ M ) 7.8.-.R.=.j.k.! g.R.%.d @ ",
". r _ ] q.P Y.h.A U *.R.V.x i . ",
"E.> Q ` ~ D I.L.z.D.J.u.g E < E.",
"E.. 2 [ z C.B.K.,.v.&.s { 6 . E.",
"E.E.. 3 k G w a.$.K 3.b 9 o E.E.",
"E.E.E.. > t n J o.e 8 > . E.E.E.",
"E.E.E.E.E.  # % & $ X E.E.E.E.E."
};
