/* XPM */
static char *result[] = {
/* columns rows colors chars-per-pixel */
"32 32 87 1 ",
"  c #059D9D",
". c #089F9F",
"X c #08A0A0",
"o c #17A9A9",
"O c #1BADAD",
"+ c #2AB5B5",
"@ c #2EB9B9",
"# c #34B6B6",
"$ c #3DB7B7",
"% c #34BCBC",
"& c #3DBDBD",
"* c #41B7B7",
"= c #43BCBC",
"- c #4BBBBB",
"; c #53BCBC",
": c #63BEBE",
"> c #36C1C1",
", c #3DC3C3",
"< c #44C3C3",
"1 c #4BC3C3",
"2 c #46CACA",
"3 c #4DCCCC",
"4 c #54C2C2",
"5 c #5CC3C3",
"6 c #55C9C9",
"7 c #5ACCCC",
"8 c #4ED0D0",
"9 c #53D1D1",
"0 c #5BD6D6",
"q c #5DD9D9",
"w c #63C3C3",
"e c #6BC5C5",
"r c #74C5C5",
"t c #7BC7C7",
"y c #73C9C9",
"u c #7CCACA",
"i c #61D1D1",
"p c #62DBDB",
"a c #69DCDC",
"s c #74D6D6",
"d c #73DFDF",
"f c #7ADBDB",
"g c #65E1E1",
"h c #6EE2E2",
"j c #73E4E4",
"k c #7AE6E6",
"l c #76E8E8",
"z c #7BE9E9",
"x c #85CDCD",
"c c #8ACFCF",
"v c #8CD1D1",
"b c #84DEDE",
"n c #95D2D2",
"m c #99D4D4",
"M c #A1D5D5",
"N c #A8D7D7",
"B c #A4D9D9",
"V c #ACDBDB",
"C c #B3DEDE",
"Z c #81E7E7",
"A c #84EAEA",
"S c #8BECEC",
"D c #95E5E5",
"F c #92EDED",
"G c #8EF0F0",
"H c #94F0F0",
"J c #9CF2F2",
"K c #B7E0E0",
"L c #BAE1E1",
"P c #A4F3F3",
"I c #AAF4F4",
"U c #ACF9F9",
"Y c #B6F7F7",
"T c #B3FAFA",
"R c #BDFDFD",
"E c #C4E4E4",
"W c #C9E6E6",
"Q c #CFE8E8",
"! c #D3EBEB",
"~ c #DBEEEE",
"^ c #CAFFFF",
"/ c #E3F2F2",
"( c #ECF5F5",
") c #F1F7F7",
"_ c #F5F9F9",
"` c #FEFEFE",
"' c None",
/* pixels */
"'''''''''''    XX    '''''''''''",
"''''''''' Xo%2>@003%o  '''''''''",
"'''''''  O%9l*mx3zjlhq@  '''''''",
"'''''' O,wV-g1`(,kjjjjlpO ''''''",
"''''' %l8n`vq1Q`;zAzAzjjl% '''''",
"'''' %ljgw`V90v`u%1129klhz, ''''",
"''' @ljkA<(/#=V`(Q~~Wt&zlal% '''",
"'' Olhq31*/`/_````````V=AjjlO ''",
"'' p9-ym!_````(WCE`````rqzjdp ''",
"' @z<N``````/w47i6;/```L3Ajjk@ '",
"' qlqwCcE```Q<UUTTkw```W6Skjjp '",
" ohjl16p%W```5PIIPU;_``n9SklhjO ",
" %jjjASJax```yFYYRic``!$SSzjjj% ",
"X6jjkZASAw```mfYb5t```B-4iSkjj9 ",
"X0hlkZASJ4(``!*ec!``````/r3Ajjq ",
" qhlkZSSP6E```_```_)``````:pkjp ",
".qjjZZASJan````Lcyw55V````W<zjqX",
" 0hjkZASFZy```n=DPTUP<V```(-kjq ",
" 6jjfZADFF6_``Ks^YIIIHw```_4hj9 ",
" %jdkzZSFP4~``(5YIPPIzw`_`)1lj% ",
" ohhjkZSSJiB```wJIIUz$!```E,lhO ",
"' qjjkkZAFdu```ujFa4:!```_;pjq '",
"' +lhjkzAFG5_``K*en!````~;9kj@ '",
"'' qjdjkZp<e````_`````Wu$qzhp.''",
"'' ojhjz7;C```````(`/;=0zkalO ''",
"''' @lhk3C```/_`B-$_(,Szjhl> '''",
"'''' %lj8xEcw#x`uq3C`5gjhl< ''''",
"'''''X@ja%29gj4`L3qv`v3lj%X'''''",
"'''''' o0zlljl<_`1g;E:9gO ''''''",
"'''''''  +9hjz<mL$l6<2%  '''''''",
"'''''''''  o@83+>89>O. '''''''''",
"'''''''''''    XXXX  '''''''''''"
};
