/* XPM */
static char *result[] = {
/* columns rows colors chars-per-pixel */
"32 32 95 2 ",
"   c #5A1DE1",
".  c #5F22E3",
"X  c #662DE3",
"o  c #672EE3",
"O  c #672FE3",
"+  c #662DE4",
"@  c #672EE4",
"#  c #682FE4",
"$  c #6830E4",
"%  c #6930E4",
"&  c #6931E4",
"*  c #6A31E4",
"=  c #6A32E4",
"-  c #6B34E4",
";  c #6C35E5",
":  c #6C36E4",
">  c #6D36E4",
",  c #6D36E5",
"<  c #6D37E5",
"1  c #6E37E5",
"2  c #6E38E5",
"3  c #6F38E5",
"4  c #6F39E5",
"5  c #6F3AE5",
"6  c #703AE5",
"7  c #703BE5",
"8  c #713BE5",
"9  c #713CE5",
"0  c #733EE5",
"q  c #723DE6",
"w  c #7440E6",
"e  c #7743E6",
"r  c #7745E7",
"t  c #7845E7",
"y  c #7846E7",
"u  c #7A48E7",
"i  c #7B49E7",
"p  c #7C4CE7",
"a  c #7E4EE8",
"s  c #7F4EE8",
"d  c #7F4FE8",
"f  c #8050E8",
"g  c #8051E8",
"h  c #875AE9",
"j  c #875BE9",
"k  c #885BE9",
"l  c #9973ED",
"z  c #9A75ED",
"x  c #9B75ED",
"c  c #9B76ED",
"v  c #9D79ED",
"b  c #9E7BEE",
"n  c #A481EF",
"m  c #A584EF",
"M  c #A686EF",
"N  c #B69CF2",
"B  c #B99FF2",
"V  c #B9A0F2",
"C  c #BBA1F3",
"Z  c #BBA2F3",
"A  c #BCA2F3",
"S  c #BCA3F3",
"D  c #CFBDF6",
"F  c #CFBCF7",
"G  c #CFBEF7",
"H  c #D0BDF7",
"J  c #D0BEF7",
"K  c #D2C0F7",
"L  c #D2C1F7",
"P  c #D3C1F7",
"I  c #D3C2F7",
"U  c #D5C5F7",
"Y  c #D9CAF8",
"T  c #F1EBFD",
"R  c #F5F3FD",
"E  c #F6F4FD",
"W  c #F8F6FE",
"Q  c #F8F7FE",
"!  c #F9F7FE",
"~  c #FAF8FE",
"^  c #FAF9FE",
"/  c #FBF9FE",
"(  c #FBF9FF",
")  c #FBFAFE",
"_  c #FBFBFE",
"`  c #FBFBFF",
"'  c #FDFBFF",
"]  c #FCFCFF",
"[  c #FDFCFF",
"{  c #FDFDFF",
"}  c #FEFDFF",
"|  c #FFFDFF",
" . c #FEFEFF",
".. c #FFFEFF",
"X. c white",
/* pixels */
"4 4 4 6 6 6 6 6 6 6 4 4 4 6 6 6 6 6 6 6 4 4 6 6 6 6 6 6 6 4 4 4 ",
"4 4 3 - - - - - - : 4 4 1 - - - - - - > 4 4 > - - - - - - 3 4 4 ",
"4 3 8 a d d d d f u 2 2 w f d d d d g r 2 2 t g d d d d s 9 3 4 ",
"6 - a R _ ~ ^ W X.D & $ l X.Q ^ ^ W X.B @ @ V X.W ^ ~ _ E d - 6 ",
"6 - d ^ X...X.[ X.L & $ x X.{ X.X.[ X.Z @ @ S X.[ X...X.) f - 6 ",
"6 - d ~ X.| ..' X.K & $ x X.[ ....' X.C @ @ A X.' ..| X./ f - 6 ",
"6 - d ^ X...X.[ X.L & $ x X.{ X.X.[ X.Z @ @ S X.[ X...X.) f - 6 ",
"6 - d ^ X...X.[ X.L & $ x X.{ X.X.[ X.Z @ @ C X.( [ '  .! f - 6 ",
"6 - d ^ X...X.[ X.L & $ x X.{ X.X.[ X.Z @ @ S X.[ X...X.) f - 6 ",
"6 - d ^ X...X.[ X.L & $ x X.{ X.X.[ X.Z X = n Y J K K P F i ; 6 ",
"6 - d ^ X...X.[ X.L & $ x X.{ X.X.[ X.S o w > $ & & & & & 2 4 4 ",
"6 - d ^ X...X.[ X.L & $ x X.{ X.X.] X.N   O + @ @ @ @ @ @ 1 4 4 ",
"6 - d ^ X...X.[ X.L & $ x X.{ X.X.} X.U b M m m m m m m m y , 6 ",
"6 - d ^ X...X.[ X.L & $ x X.{ X.X.X.X.X.X.X.X.X.X.X.X.X.X.k * 7 ",
"6 - d ^ X...X.[ X.L & $ x X.{ X.X.X.X. .[ [ [ [ [ [ [ [ } h = 7 ",
"6 - d ^ X...X.[ X.L & $ x X.{ X.X.X.X.X.X.X.X.X.X.X.X.X.X.k = 7 ",
"6 - d ^ X...X.[ X.L & $ x X.{ X.X.X.X.X.X.X.X.X.X.X.X.X.X.k = 7 ",
"6 - d ^ X...X.[ X.L & $ z X.` { { { { { { { { { { { { {  .j = 7 ",
"6 - d ^ X...X.[ X.L & $ x X.{ X.X.X.X.X.X.X.X.X.X.X.X.X.X.k * 7 ",
"6 - d ^ X...X.[ X.L # 2 p v z c c c c c c c c c c c c c c e < 5 ",
"6 - d ^ X...X.[ X.I % 0 2 # $ $ $ $ $ $ $ $ $ $ $ $ $ $ $ 1 4 4 ",
"6 - d ^ X...X.[ X.G . % # & & & & & & & & & & & & & & & & 2 4 4 ",
"6 - d ^ X...X. .X.T H P K K K K K K K K K K K K K K K K P f - 6 ",
"6 - d ^ X...X.X.X.X.X.X.X.X.X.X.X.X.X.X.X.X.X.X.X.X.X.X.X.k * 7 ",
"6 - d ^ X...X.X.X. .[ [ [ [ [ [ [ [ [ [ [ [ [ [ [ [ [ [ } h = 7 ",
"6 - d ^ X...X.X.X.X.X.X.X.X.X.X.X.X.X.X.X.X.X.X.X.X.X.X.X.k = 7 ",
"6 - d ~ X.| ............................................X.k = 7 ",
"6 - d ^ X...X.X.X.X.X.X.X.X.X.X.X.X.X.X.X.X.X.X.X.X.X.X.X.k = 7 ",
"6 - a R _ ~ ^ ^ ^ ^ ^ ^ ^ ^ ^ ^ ^ ^ ^ ^ ^ ^ ^ ^ ^ ^ ^ ^ ) h = 7 ",
"4 3 8 a d d d d d d d d d d d d d d d d d d d d d d d d d q 2 4 ",
"4 4 3 - - - - - - - - - - - - - - - - - - - - - - - - - - 2 4 4 ",
"4 4 4 6 6 6 6 6 6 6 6 6 6 6 6 6 6 6 6 6 6 6 6 6 6 6 6 6 6 4 4 4 "
};
