/* XPM */
static char *result[] = {
/* columns rows colors chars-per-pixel */
"64 64 109 2 ",
"   c #019595",
".  c #0C9696",
"X  c #059E9E",
"o  c #0B9D9D",
"O  c #139E9E",
"+  c #1A9E9E",
"@  c #07A0A0",
"#  c #0CA2A2",
"$  c #12A4A4",
"%  c #1BA3A3",
"&  c #16A9A9",
"*  c #1BACAC",
"=  c #1DB2B2",
"-  c #24A4A4",
";  c #2BA6A6",
":  c #21AEAE",
">  c #2CA9A9",
",  c #33AAAA",
"<  c #3CAEAE",
"1  c #24B3B3",
"2  c #2AB5B5",
"3  c #2EBABA",
"4  c #33B6B6",
"5  c #3CB3B3",
"6  c #33BCBC",
"7  c #3BBEBE",
"8  c #42AEAE",
"9  c #45B2B2",
"0  c #4CB3B3",
"q  c #44BEBE",
"w  c #52B6B6",
"e  c #56B9B9",
"r  c #5CBABA",
"t  c #63BEBE",
"y  c #69BFBF",
"u  c #36C0C0",
"i  c #3CC2C2",
"p  c #42C4C4",
"a  c #48C5C5",
"s  c #47C9C9",
"d  c #4BCBCB",
"f  c #51C6C6",
"g  c #54CCCC",
"h  c #5BCECE",
"j  c #55D2D2",
"k  c #5AD4D4",
"l  c #5ED9D9",
"z  c #67C0C0",
"x  c #6BC1C1",
"c  c #63CFCF",
"v  c #73C5C5",
"b  c #7AC7C7",
"n  c #7CC9C9",
"m  c #67D2D2",
"M  c #6DD2D2",
"N  c #64DCDC",
"B  c #6ADEDE",
"V  c #70D6D6",
"C  c #72DBDB",
"Z  c #7BDEDE",
"A  c #67E0E0",
"S  c #6DE1E1",
"D  c #73E4E4",
"F  c #7BE6E6",
"G  c #75E8E8",
"H  c #7CE9E9",
"J  c #84CBCB",
"K  c #8DCECE",
"L  c #8DD0D0",
"P  c #94D2D2",
"I  c #9CD5D5",
"U  c #A1D7D7",
"Y  c #A3D8D8",
"T  c #ADDDDD",
"R  c #B3DEDE",
"E  c #81E6E6",
"W  c #8EE2E2",
"Q  c #84E9E9",
"!  c #8BEBEB",
"~  c #92EDED",
"^  c #9AEDED",
"/  c #8FF1F1",
"(  c #94F1F1",
")  c #9BF2F2",
"_  c #9EF8F8",
"`  c #B7E0E0",
"'  c #BAE2E2",
"]  c #A4F3F3",
"[  c #ABF4F4",
"{  c #A7F9F9",
"}  c #ACFAFA",
"|  c #B2F6F6",
" . c #B4FAFA",
".. c #BAFCFC",
"X. c #C3E6E6",
"o. c #C6E8E8",
"O. c #CDEAEA",
"+. c #D4EDED",
"@. c #D9EFEF",
"#. c #C3FEFE",
"$. c #C8FFFF",
"%. c #DCF0F0",
"&. c #D9FFFF",
"*. c #E4F4F4",
"=. c #EAF6F6",
"-. c #EEF8F8",
";. c #F4FBFB",
":. c #FEFEFE",
">. c None",
/* pixels */
">.>.>.>.>.>.>.>.>.>.>.>.>.>.>.>.>.>.>.>.>.>.>.>.>.X X X @ @ @ @ X X @ @ X X X >.>.>.>.>.>.>.>.>.>.>.>.>.>.>.>.>.>.>.>.>.>.>.>.>.",
">.>.>.>.>.>.>.>.>.>.>.>.>.>.>.>.>.>.>.>.>.>.X @ X X X @ # $ & * * $ & $ @ X X X @ @ >.>.>.>.>.>.>.>.>.>.>.>.>.>.>.>.>.>.>.>.>.>.",
">.>.>.>.>.>.>.>.>.>.>.>.>.>.>.>.>.>.>.@ X X X # = i l D G D k d G D S S S N s 1 # @ X X X >.>.>.>.>.>.>.>.>.>.>.>.>.>.>.>.>.>.>.",
">.>.>.>.>.>.>.>.>.>.>.>.>.>.>.>.>.X @ @ # 2 l S G G N i * o % X s G S S S S S D S N 6 # X X X >.>.>.>.>.>.>.>.>.>.>.>.>.>.>.>.>.",
">.>.>.>.>.>.>.>.>.>.>.>.>.>.>.X @ X # s D l j S S S # > b ` -.x * H D B S S S S S D D D j $ X @ X >.>.>.>.>.>.>.>.>.>.>.>.>.>.>.",
">.>.>.>.>.>.>.>.>.>.>.>.>.>.X X @ i s 1 # %   d F G $ I :.:.:.Y # G D D D D D S B B S B S D j # X X >.>.>.>.>.>.>.>.>.>.>.>.>.>.",
">.>.>.>.>.>.>.>.>.>.>.>.X X X 3 D * - v T *.t 1 H Q 3 w :.:.:.%.o B F D F D D D D D S S S S D D i @ X X >.>.>.>.>.>.>.>.>.>.>.>.",
">.>.>.>.>.>.>.>.>.>.>.X X o j G D # U :.:.:.Y # H H j % :.:.:.:.; d E F D D G D D D G D S S S B D N $ @ X >.>.>.>.>.>.>.>.>.>.>.",
">.>.>.>.>.>.>.>.>.>.X X & S G A G 2 e :.:.:.+.# B Q D # O.:.:.:.t 2 ! F G G F G G D F D C D D S S S D 1 X X >.>.>.>.>.>.>.>.>.>.",
">.>.>.>.>.>.>.>.>.X X 1 D S S S F d ; :.:.:.;.- j Q Q $ P :.:.:.I $ ! ! ! ! ! Q E H F D D D D S S S S G 6 X X >.>.>.>.>.>.>.>.>.",
">.>.>.>.>.>.>.>.X X 1 G S B S S G B o @.:.:.:.0 7 ! ! 3 r :.:.:.+.X j j p 7 7 p g B H Q F D D D S S S S D 6 X X >.>.>.>.>.>.>.>.",
">.>.>.>.>.>.>.X X 1 G S S B D G G H $ I :.:.:.J = ( ( k % :.:.:.:.< % > 5 e 0 < > O # 7 F Q G D D D S S S G 6 X X >.>.>.>.>.>.>.",
">.>.>.>.>.>.@ X * G S S D B D D G Q 2 r :.:.:.` X d 2 o - ;.:.:.:.;.-.:.:.:.:.:.:.%.I > o m ! D G D D B S S G 1 X @ >.>.>.>.>.>.",
">.>.>.>.>.>.X # S S S B D D D F Q ! j ; :.:.:.-., > x R -.:.:.:.:.:.:.:.:.:.:.:.:.:.:.:.n   k Q D F D D S S B G # X >.>.>.>.>.>.",
">.>.>.>.>.X @ k D S D D H H Q F B d : X *.:.:.:.:.:.:.:.:.:.:.:.:.:.:.:.:.:.:.:.:.:.:.:.:.I   B E F F C D S S S N # X >.>.>.>.>.",
">.>.>.>.X X 6 D B G G S k i * # O , t T :.:.:.:.:.:.:.:.:.:.:.:.:.:.:.;.:.:.:.:.:.:.:.:.:.:.x # E H D G D S S S G i X X >.>.>.>.",
">.>.>.>.X # D S B i * o % < b R *.:.:.:.:.:.:.:.:.:.:.:.:.:.:.:.:.:.:.:.:.:.:.:.;.:.:.:.:.:.;.% d ! G D D C D B B G # X >.>.>.>.",
">.>.>.X X d S D k   b X.-.:.:.:.:.:.:.:.:.:.:.:.:.:.:.:.:.O.U n x t x I *.:.:.:.:.:.:.:.:.:.:.b : ! F F D D D D S S j X X >.>.>.",
">.>.>.X # G S S S # +.:.:.:.:.:.:.:.:.:.:.:.:.:.:.=.I w % O % 1 6 7 4 $ . J :.:.:.:.:.:.:.:.:.` # E H F F D D D S B G & X >.>.>.",
">.>.X X d D S S F * J :.:.:.:.:.:.:.:.:.;.:.;.:.:.J   q B ~ { [ } } } { C o t :.:.;.:.:.:.:.:.@.o F E H F F D D D S S j X X >.>.",
">.>.@ # G S S S H 6 0 :.:.:.*.=.:.:.:.:.:.:.:.:.:.R $ } | ] ] ] ] ] ] ^  .!   ` :.:.:.:.:.:.:.%.% D Q E H F D C S S S G # X >.>.",
">.>.@ 3 S S S S H j + Y x > $ $ 0 @.:.:.:.:.:.:.:.=.% E [ ] ] ] ] ] ] ] ]  .6 t :.:.:.:.:.:.:.O.o E Q H H F F D D S S D i X >.>.",
">.@ @ l S S D D D F $ # 1 g C C > % -.:.:.:.:.:.:.:.< c  .] ] ] ] ] ] ] ]  .f 8 :.:.:.;.:.:.:.P & ! Q E F F F D D D S S A X X >.",
">.X $ D S S S D G F F Q ! / ! ^ ) o U :.:.:.:.;.:.:.t 4 ..] [ [ [ [ [ [ ]  .q w :.:.:.:.:.:.:.< p ^ Q Q E F F D D S S S D $ X >.",
">.X 2 D B D D D D F F E ! E ! ! ) 4 r :.:.:.:.:.;.:.U %  .| [ [ | [ [ ] ..~   ` :.:.:.:.:.:.T   H ! Q Q E F F F D D B S D 2 @ >.",
"X X d S S B D D F F E E E E ! ! ) k > :.:.:.:.:.:.:.+.o ^ | | | | | | $.] % r :.:.:.;.:.:.X.o m { ^ ! Q E H F D F D D S D d X X ",
"X @ A S S D C F F F H E ! ! ! ~ ) E o %.:.:.:.:.:.:.:.- Z #.|  .#.$.| c X w :.:.:.:.:.:.:.-   > 3 g ! ( E E H F D G D B S N X X ",
"X @ S A S D D D F H E E E Q ! ! ~ ) $ Y :.:.:.:.:.:.:.0 f &.$.| P p O - U :.:.:.:.:.:.:.:.X.U K y - o g ( E H F F C B D S S # X ",
"X $ S S S D F D F F E E ! ! ! ~ ~ { 4 t :.:.:.:.:.:.:.J $ c 4 % % w T :.:.:.:.:.:.:.:.:.:.:.:.:.:.:.P . 7 ! E F D D D D S D $ @ ",
"@ * S S S S D D F F E Q E ! ! ~ ~ ] g , :.:.:.:.:.:.:.O.> 8 n R -.:.:.:.:.:.:.:.:.:.:.;.:.:.:.:.:.:.:.+.. i ! F F D D S S S * @ ",
"X * G A S S G F F F E E Q ! ! ~ ~ ) F O =.:.:.:.:.:.:.:.:.:.:.:.:.:.:.:.:.:.:.:.:.:.:.:.:.:.:.:.:.:.:.:.X.  N E D D D S S S * @ ",
"X * G A D D D D F F E E ! ! W ~ ~ ) ^ $ R :.:.:.:.:.:.:.:.:.:.:.:.:.:.:.:.:.:.:.:.:.:.;.:.:.:.:.:.:.:.:.:.y * Q F F S S S G * @ ",
"X = S S B D C D H H E E Q ! ! ! ~ ( { : n :.:.:.:.:.:.:.:.:.:.:.:.*.` P b e 0 0 r P -.:.:.:.:.:.:.:.:.:.:.%.o B H D D S B D = X ",
"X * G S S D F F F E E Q Q ! ! ~ ~ ^ [ a 9 :.:.:.:.:.:.:.:.-.T x , % % > 6 a f f q % + I :.:.:.:.:.:.;.:.:.:.> s Q D D C S D * X ",
"X * S S S D D D F F E Q ! ! ! ~ ~ ~ ] C - ;.:.:.:.:.:.:.:.> O 5 M ^ | $.$.#.#... . .m   L :.:.:.;.:.:.:.:.:.t 3 Q D D D S G * X ",
"@ # D B B D D F F F E E E W ! ~ ! ^ ) ~ # O.:.:.:.:.:.:.:., c &.$.#. .| | | | ] ] { ..C X @.:.:.:.:.:.:.:.:.K * H D D B A S $ X ",
"X @ S S S D D D F F E E E ! ! ! ~ ^ ( ] * P :.:.:.:.;.:.:.v 4 $.| | | | [ [ [ [ ] ] ] } % K :.:.:.:.;.:.:.:.T # F G D S S S @ X ",
"X X N S B S D D D F E E W ! ! ! ! ( ~ { 6 z :.:.:.:.:.:.:.T $  .| | | [ [ [ [ ] ] ] ^ [ 7 t :.:.:.:.:.:.:.:.T # F D S S S A X X ",
"@ @ s S B D D D D F F E E Q Q ! ! ~ ^ ] j > :.:.:.:.;.:.:.*.o ^ ..| [ | [ ] ] ] ] ) ) } 7 e :.:.:.:.:.:.:.:.K * H D D S S d X X ",
">.@ 1 G B S S C F F H E E Q ! ! ~ ! ( ) L O *.:.:.:.:.:.:.:.> M  .[ [ [ [ ] ] ] ] ) ] ) X I :.;.:.:.;.:.:.:.y > H D S S S 3 X >.",
">.X # D S S S D F F F F E E Q ~ ! ! ~ ^ ~ $ R :.:.:.:.:.:.:.r q ..[ ] ] ] ] ^ ) ) ] } 2 , :.:.:.:.:.:.:.:.:.< i H S S S D # @ >.",
">.X X N S S S S D D F F E E Q Q ! ! ~ ~ ] 1 b :.;.:.;.:.:.:.K : | ] ] ] ] ] ] ] } ^ : + %.:.:.:.:.:.:.:.:.@.X N D D S S A @ X >.",
">.>.X 3 S S S D D G D F E E E ! ! ! ! ! ] d < :.:.:.:.:.:.:.X.o ^ ] ] ] ] } [ Q q X 8 *.:.:.:.:.:.:.:.:.:.e * H D B S S 7 X >.>.",
">.>.X # S S S S C D F F H E E E Q ! ! ~ ( C % *.:.:.:.:.:.:.;.+ F  . .] ~ h : o 8 R :.:.:.:.:.:.:.:.:.:.P   B F B D B D # X >.>.",
">.>.X X d S S S D D D F F F E E E ! Q ! ~ ! $ ` :.:.:.:.:.:.:.< q C 7 % O ; b O.:.:.:.:.:.:.:.;.:.:.:.K   g H S S A S j @ X >.>.",
">.>.>.X $ G A S S D D D F F H E Q E ! ! ! ) : K :.:.:.:.:.:.:.J . > r P O.:.:.:.:.:.:.:.:.:.:.:.:.-.e   k H D D S A G & X >.>.>.",
">.>.>.X @ s S S S S D D F F F F H E ! ! ( _ & J :.:.:.:.:.:.:.;.@.:.:.:.:.:.:.:.:.:.:.:.:.:.:.:.I + % S H D D S S S j X X >.>.>.",
">.>.>.>.@ # G A S C D D D C F H H ! Q B g * O +.:.:.:.:.:.:.:.:.:.:.:.:.:.:.:.:.:.:.:.:.:.@.J ; o s Q H D D S S N G $ X >.>.>.>.",
">.>.>.>.X X 6 G A S S D D D F F Q p O % ; y @.:.:.:.:.:.:.:.:.:.:.:.:.:.:.:.:.:.:.:.*.K < O % s F Q D D D S S B S i X X >.>.>.>.",
">.>.>.>.>.X X j S B S S S D D D H $ b *.:.:.:.:.:.:.:.:.:.:.:.:.:.:.:.:.:.:.:.:.:.*.O $ 7 B Q Q F D D D S S S S N @ X >.>.>.>.>.",
">.>.>.>.>.>.X # S A A S S D D F H * I :.:.:.:.:.:.:.:.:.:.:.:.:.:.;.O.P e v :.:.:.-.% N ( Q F D D D C D S A N G $ @ >.>.>.>.>.>.",
">.>.>.>.>.>.X X * G S S S S C D H : J :.:.:.:.:.:.:.:.:.:.:.:.:.@.> # % 2 X %.:.:.:.9 7 Q G F D D D D S S S G 2 @ @ >.>.>.>.>.>.",
">.>.>.>.>.>.>.X X = D A S S S D H 1 b :.:.:.:.:.-.X.K 9 x :.:.:.+.X N ~ / $ U :.:.:.J * Q D D D D B S S A D 6 X X >.>.>.>.>.>.>.",
">.>.>.>.>.>.>.>.X X 1 D S B S S G 2 x :.=.' b 9 % o * 3 X *.:.:.:., d ! ! 1 z :.:.:.` # D G D D D S S A G u X X >.>.>.>.>.>.>.>.",
">.>.>.>.>.>.>.>.>.X @ = S S B S F 6 % 9 % o * i k D Q Q # R :.:.:.z 2 ! Q s , :.:.:.=.% l F S S B S S G 3 X X >.>.>.>.>.>.>.>.>.",
">.>.>.>.>.>.>.>.>.>.X @ * S S B D j 2 u k D G Q H F F Q * n :.:.:.I $ G H N $ *.:.:.:., i G S S B B S 2 @ X >.>.>.>.>.>.>.>.>.>.",
">.>.>.>.>.>.>.>.>.>.>.X X # j D A S G G D D S D C D G Q 7 9 :.:.:.@.o N G G $ R :.:.:.J * G A A S N $ X X >.>.>.>.>.>.>.>.>.>.>.",
">.>.>.>.>.>.>.>.>.>.>.>.X X X 3 S S A S S S S S S D D G j % ;.:.:.:.> s H H & b :.%.` 0 # S S G s @ @ X >.>.>.>.>.>.>.>.>.>.>.>.",
">.>.>.>.>.>.>.>.>.>.>.>.>.>.X X @ s S D A A S S S S S S S X X.:.:.:.z 2 F F i O 5 O @ = d G j $ @ X >.>.>.>.>.>.>.>.>.>.>.>.>.>.",
">.>.>.>.>.>.>.>.>.>.>.>.>.>.>.X @ @ # p S G S A S S S S G $ L :.-.O.w # D D N 3 u l D H k & @ @ X >.>.>.>.>.>.>.>.>.>.>.>.>.>.>.",
">.>.>.>.>.>.>.>.>.>.>.>.>.>.>.>.>.X @ X @ 2 l S S S S S G 3 - e % # * s S A S G G S i # X X X >.>.>.>.>.>.>.>.>.>.>.>.>.>.>.>.>.",
">.>.>.>.>.>.>.>.>.>.>.>.>.>.>.>.>.>.>.X X X X # 1 p l A S N 2 u j S G G S A d 3 $ X @ X X >.>.>.>.>.>.>.>.>.>.>.>.>.>.>.>.>.>.>.",
">.>.>.>.>.>.>.>.>.>.>.>.>.>.>.>.>.>.>.>.>.>.X X X X @ @ # * * = = * & $ @ X @ @ X X >.>.>.>.>.>.>.>.>.>.>.>.>.>.>.>.>.>.>.>.>.>.",
">.>.>.>.>.>.>.>.>.>.>.>.>.>.>.>.>.>.>.>.>.>.>.>.>.X X X X X X X X X X X X X @ >.>.>.>.>.>.>.>.>.>.>.>.>.>.>.>.>.>.>.>.>.>.>.>.>."
};
