/* XPM */
static char *result[] = {
/* columns rows colors chars-per-pixel */
"64 64 80 1 ",
"  c #5B1EE1",
". c #642BE3",
"X c #652BE3",
"o c #652CE3",
"O c #672DE3",
"+ c #672EE3",
"@ c #672FE3",
"# c #6930E4",
"$ c #6931E4",
"% c #6A31E4",
"& c #6A32E4",
"* c #6B34E4",
"= c #6C35E4",
"- c #6C36E4",
"; c #6D36E5",
": c #6D37E5",
"> c #6E37E5",
", c #6E38E5",
"< c #6F39E5",
"1 c #6F3AE5",
"2 c #703AE5",
"3 c #703BE5",
"4 c #713CE5",
"5 c #723DE5",
"6 c #733FE5",
"7 c #733EE6",
"8 c #7541E6",
"9 c #7642E6",
"0 c #7845E7",
"q c #7846E7",
"w c #7947E7",
"e c #7D4CE7",
"r c #7E4EE8",
"t c #7F4FE8",
"y c #7F50E8",
"u c #8557E9",
"i c #8558E9",
"p c #8658E9",
"a c #875AE9",
"s c #885AE9",
"d c #885BE9",
"f c #885BEA",
"g c #895DEA",
"h c #8F65EB",
"j c #9973ED",
"k c #9A74ED",
"l c #9F7BEE",
"z c #A07DEE",
"x c #A381EF",
"c c #A482EF",
"v c #A583EF",
"b c #A584EF",
"n c #A685EF",
"m c #A787EF",
"M c #A887F0",
"N c #C4ADF5",
"B c #C5AFF5",
"V c #C5B0F5",
"C c #C6B1F5",
"Z c #C7B2F5",
"A c #CAB7F6",
"S c #CCB9F6",
"D c #D9CBF8",
"F c #D9CCF8",
"G c #DACDF8",
"H c #DED2F9",
"J c #E0D5F9",
"K c #F9F6FE",
"L c #FAF8FE",
"P c #FBF9FE",
"I c #FBF9FF",
"U c #FBFAFF",
"Y c #FBFBFF",
"T c #FDFBFF",
"R c #FDFCFF",
"E c #FDFDFF",
"W c #FEFDFF",
"Q c #FEFEFF",
"! c #FFFEFF",
"~ c white",
/* pixels */
"<<<<<<<<<<<<<<<<<<<<<<<<<<<<<<<<<<<<<<<<<<<<<<<<<<<<<<<<<<<<<<<<",
"<<<<<<<<<<<<<<<<<<<<<<<<<<<<<<<<<<<<<<<<<<<<<<<<<<<<<<<<<<<<<<<<",
"<<<<<<<<<<<<<<<<<<<<<<<<<<<<<<<<<<<<<<<<<<<<<<<<<<<<<<<<<<<<<<<<",
"<<<<<<33333333333331<<<<<23333333333333<<<<<<3333333333333<<<<<<",
"<<<<<,&&&&&&&&&&&&&;<<<<<=&&&&&&&&&&&&&,<<<<,&&&&&&&&&&&&&,<<<<<",
"<<<<,7pppppppppppps0:<<<:espppppppppppu4,<<,5upppppppppppp7,<<<<",
"<<<3&i~~~~~~~~~~~R~no4<4XB~R~~~~~~~~!~Lr*22*yP~!~~~~~~~~~~d$3<<<",
"<<<3&i~~~~~~~~~~~R~no4<4XB~R~~~~~~~~!~Lr*22*yP~!~~~~~~~~~~d$3<<<",
"<<<3&i~~~~~~~~~~~R~no4<4XB~R~~~~~~~~!~Lr*22*yP~!~~~~~~~~~~d$3<<<",
"<<<3&i~~~~~~~~~~~R~no4<4XB~R~~~~~~~~!~Lr*22*yP~!~~~~~~~~~~d$3<<<",
"<<<3&i~~~~~~~~~~~R~no4<4XB~R~~~~~~~~!~Lr*22*yP~!~~~~~~~~~~d$3<<<",
"<<<3&i~~~~~~~~~~~R~no4<4XB~R~~~~~~~~!~Lr*22*yP~!~~~~~~~~~~d$3<<<",
"<<<3&i~~~~~~~~~~~R~no4<4XB~R~~~~~~~~!~Lr*22*yP~!~~~~~~~~~~d$3<<<",
"<<<3&i~~~~~~~~~~~R~no4<4XB~R~~~~~~~~!~Lr*22*yP~!~~~~~~~~~~d$3<<<",
"<<<3&i~~~~~~~~~~~R~no4<4XB~R~~~~~~~~!~Lr*22*yP~!~~~~~~~~~~d$3<<<",
"<<<3&i~~~~~~~~~~~R~no4<4XB~R~~~~~~~~!~Lr*22*yP~!~~~~~~~~~~d$3<<<",
"<<<3&i~~~~~~~~~~~R~no4<4XB~R~~~~~~~~!~Lr*22*yP~!~~~~~~~~~~d$3<<<",
"<<<3&i~~~~~~~~~~~R~no4<4XB~R~~~~~~~~!~Lr*22*tKQTRRRRRRRRRWa%3<<<",
"<<<3&i~~~~~~~~~~~R~no4<4XB~R~~~~~~~~!~Lr*22*yP~!~~~~~~~~~~f$3<<<",
"<<<3&i~~~~~~~~~~~R~no4<4XB~R~~~~~~~~!~Lr*2<>8xbvvvvvvvvvvvq;1<<<",
"<<<3&i~~~~~~~~~~~R~no4<4XB~R~~~~~~~~!~Lr*2<<,ooooooooooooo:<<<<<",
"<<<3&i~~~~~~~~~~~R~no4<4XB~R~~~~~~~~!~Lr*2<<<44444444444441<<<<<",
"<<<3&i~~~~~~~~~~~R~no4<4XB~R~~~~~~~~!~Lr*2<<<<<<<<<<<<<<<<<<<<<<",
"<<<3&i~~~~~~~~~~~R~no4<4XB~R~~~~~~~~!~Ly-433333333333333331<<<<<",
"<<<3&i~~~~~~~~~~~R~no4<4XB~R~~~~~~~~!~Lwo&$$$$$$$$$$$$$$$$:<<<<<",
"<<<3&i~~~~~~~~~~~R~no4<4XB~R~~~~~~~~~~WHFGGGGGGGGGGGGGGGDJh#3<<<",
"<<<3&i~~~~~~~~~~~R~no4<4XB~R~~~~~~~~~~~~~~~~~~~~~~~~~~~~E~kO4<<<",
"<<<3&i~~~~~~~~~~~R~no4<4XB~R~~~~~~~~~~~EEEEEEEEEEEEEEEEEY~j+4<<<",
"<<<3&i~~~~~~~~~~~R~no4<4XB~R~~~~~~~~~~~~~~~~~~~~~~~~~~~~E~kO4<<<",
"<<<3&i~~~~~~~~~~~R~no4<4XB~R~~~~~~~~~~~~~~~~~~~~~~~~~~~~E~kO4<<<",
"<<<3&i~~~~~~~~~~~R~no4<4XB~R~~~~~~~~~~~~~~~~~~~~~~~~~~~~E~kO4<<<",
"<<<3&i~~~~~~~~~~~R~no4<4XB~R~~~~~~~~~~~~~~~~~~~~~~~~~~~~E~kO4<<<",
"<<<3&i~~~~~~~~~~~R~no4<4XB~R~~~~~~~~~~~~~~~~~~~~~~~~~~~~E~kO4<<<",
"<<<3&i~~~~~~~~~~~R~no4<4XB~R~~~~~~~~~~~~~~~~~~~~~~~~~~~~E~kO4<<<",
"<<<3&i~~~~~~~~~~~R~no4<4XB~R~~~~~~~~~~~~~~~~~~~~~~~~~~~~E~kO4<<<",
"<<<3&i~~~~~~~~~~~R~no4<4XB~R~~~~~~~~~~~~~~~~~~~~~~~~~~~~E~kO4<<<",
"<<<3&i~~~~~~~~~~~R~no4<4oN~IRRRRRRRRRRRRRRRRRRRRRRRRRRRRU~j+4<<<",
"<<<3&i~~~~~~~~~~~R~no4<4oV~R~~~~~~~~~~~~~~~~~~~~~~~~~~~~E~kO4<<<",
"<<<3&i~~~~~~~~~~~R~no4<3$xSBCCCCCCCCCCCCCCCCCCCCCCCCCCCCVAg&3<<<",
"<<<3&i~~~~~~~~~~~R~no4<<2$.oooooooooooooooooooooooooooooo.=2<<<<",
"<<<3&i~~~~~~~~~~~R~no4<<<3444444444444444444444444444444442<<<<<",
"<<<3&i~~~~~~~~~~~R~no4<<<<<<<<<<<<<<<<<<<<<<<<<<<<<<<<<<<<<<<<<<",
"<<<3&i~~~~~~~~~~~R~m@64444444444444444444444444444444444442<<<<<",
"<<<3&i~~~~~~~~~~~R~z @ooooooooooooooooooooooooooooooooooo.=2<<<<",
"<<<3&i~~~~~~~~~~~W~ZlnvvvvvvvvvvvvvvvvvvvvvvvvvvvvvvvvvvcMt=2<<<",
"<<<3&i~~~~~~~~~~~~~~~~~~~~~~~~~~~~~~~~~~~~~~~~~~~~~~~~~~E~kO4<<<",
"<<<3&i~~~~~~~~~~~~~WRRRRRRRRRRRRRRRRRRRRRRRRRRRRRRRRRRRRU~j+4<<<",
"<<<3&i~~~~~~~~~~~~~~~~~~~~~~~~~~~~~~~~~~~~~~~~~~~~~~~~~~E~kO4<<<",
"<<<3&i~~~~~~~~~~~~~~~~~~~~~~~~~~~~~~~~~~~~~~~~~~~~~~~~~~E~kO4<<<",
"<<<3&i~~~~~~~~~~~~~~~~~~~~~~~~~~~~~~~~~~~~~~~~~~~~~~~~~~E~kO4<<<",
"<<<3&i~~~~~~~~~~~~~~~~~~~~~~~~~~~~~~~~~~~~~~~~~~~~~~~~~~E~kO4<<<",
"<<<3&i~~~~~~~~~~~~~~~~~~~~~~~~~~~~~~~~~~~~~~~~~~~~~~~~~~E~kO4<<<",
"<<<3&i~~~~~~~~~~~~~~~~~~~~~~~~~~~~~~~~~~~~~~~~~~~~~~~~~~E~kO4<<<",
"<<<3&i~~~~~~~~~~~~~~~~~~~~~~~~~~~~~~~~~~~~~~~~~~~~~~~~~~E~kO4<<<",
"<<<3&i~~~~~~~~~~~~~~~~~~~~~~~~~~~~~~~~~~~~~~~~~~~~~~~~~~E~kO4<<<",
"<<<3&i~~~~~~~~~~~~~~~~~~~~~~~~~~~~~~~~~~~~~~~~~~~~~~~~~~E~kO4<<<",
"<<<3&i~~~~~~~~~~~~~~~~~~~~~~~~~~~~~~~~~~~~~~~~~~~~~~~~~~E~kO4<<<",
"<<<3&i~~~~~~~~~~~~~~~~~~~~~~~~~~~~~~~~~~~~~~~~~~~~~~~~~~E~kO4<<<",
"<<<<,7pppppppppppppppppppppppppppppppppppppppppppppppppppa9><<<<",
"<<<<<,&&&&&&&&&&&&&&&&&&&&&&&&&&&&&&&&&&&&&&&&&&&&&&&&&&&&><<<<<",
"<<<<<<33333333333333333333333333333333333333333333333333331<<<<<",
"<<<<<<<<<<<<<<<<<<<<<<<<<<<<<<<<<<<<<<<<<<<<<<<<<<<<<<<<<<<<<<<<",
"<<<<<<<<<<<<<<<<<<<<<<<<<<<<<<<<<<<<<<<<<<<<<<<<<<<<<<<<<<<<<<<<",
"<<<<<<<<<<<<<<<<<<<<<<<<<<<<<<<<<<<<<<<<<<<<<<<<<<<<<<<<<<<<<<<<"
};
