<?xml version="1.0" encoding="UTF-8" standalone="no"?>
<svg
   xmlns:dc="http://purl.org/dc/elements/1.1/"
   xmlns:cc="http://creativecommons.org/ns#"
   xmlns:rdf="http://www.w3.org/1999/02/22-rdf-syntax-ns#"
   xmlns:svg="http://www.w3.org/2000/svg"
   xmlns="http://www.w3.org/2000/svg"
   xmlns:xlink="http://www.w3.org/1999/xlink"
   xmlns:sodipodi="http://sodipodi.sourceforge.net/DTD/sodipodi-0.dtd"
   xmlns:inkscape="http://www.inkscape.org/namespaces/inkscape"
   xml:space="preserve"
   enable-background="new 0 0 1024 1024"
   viewBox="-34 -34 580 580"
   height="1024px"
   width="1024px"
   y="0px"
   x="0px"
   inkscape:version="1.0 (4035a4fb49, 2020-05-01)"
   sodipodi:docname="BGL.svg"
   id="svg2"
   version="1.1"><metadata
   id="metadata608"><rdf:RDF><cc:Work
       rdf:about=""><dc:format>image/svg+xml</dc:format><dc:type
         rdf:resource="http://purl.org/dc/dcmitype/StillImage" /></cc:Work></rdf:RDF></metadata><defs
   id="defs606">
		
		
	
		<radialGradient
   id="innerBtop"
   cx="277.4905"
   cy="196.4412"
   r="34.3969"
   gradientUnits="userSpaceOnUse">
			<stop
   offset="0"
   style="stop-color:#F9AA4B"
   id="stop580" />
			<stop
   offset="1"
   style="stop-color:#F7931A"
   id="stop582" />
		</radialGradient>
		
		
		<radialGradient
   id="innerBbottom"
   cx="261.9153"
   cy="284.5671"
   r="39.8381"
   gradientUnits="userSpaceOnUse">
			<stop
   offset="0"
   style="stop-color:#F9AA4B"
   id="stop587" />
			<stop
   offset="1"
   style="stop-color:#F7931A"
   id="stop589" />
		</radialGradient>
		
				
		<radialGradient
   xlink:href="#innerBtop"
   id="coinShape"
   cx="256.02759"
   cy="256.00269"
   r="255.98779"
   gradientUnits="userSpaceOnUse">
			<stop
   offset="0"
   style="stop-color:#F9AA4B"
   id="stop594" />
			<stop
   offset="1"
   style="stop-color:#F7931A"
   id="stop596" />
		</radialGradient>
		
	<radialGradient
   inkscape:collect="always"
   xlink:href="#linearGradient915"
   id="radialGradient919"
   cx="75413.336"
   cy="25312.65"
   fx="75413.336"
   fy="25312.65"
   r="24938.293"
   gradientUnits="userSpaceOnUse" /><linearGradient
   inkscape:collect="always"
   id="linearGradient915"><stop
     style="stop-color:#b9f9f9;stop-opacity:1"
     offset="0"
     id="stop911" /><stop
     style="stop-color:#68dfdf;stop-opacity:1"
     offset="1"
     id="stop913" /></linearGradient></defs><sodipodi:namedview
   inkscape:document-rotation="0"
   inkscape:current-layer="svg2"
   inkscape:window-maximized="1"
   inkscape:window-y="-8"
   inkscape:window-x="-8"
   inkscape:cy="518.48505"
   inkscape:cx="415.00371"
   inkscape:zoom="0.45254834"
   showgrid="false"
   id="namedview604"
   inkscape:window-height="1027"
   inkscape:window-width="1920"
   inkscape:pageshadow="2"
   inkscape:pageopacity="0"
   guidetolerance="10"
   gridtolerance="10"
   objecttolerance="10"
   borderopacity="1"
   bordercolor="#666666"
   pagecolor="#ffffff" />

	<!-- nice shadow with alpha 0.35 -->
	<filter
   id="dropShadowAlpha">
		<feColorMatrix
   id="feColorMatrix569"
   values="0.1"
   type="saturate"
   in="SourceAlpha"
   result="matrixOut" />
		<feGaussianBlur
   id="feGaussianBlur571"
   stdDeviation="6"
   result="blur-out"
   in="matrixOut" />
		<feColorMatrix
   id="feColorMatrix573"
   values="0 0 0 0   0                 0 0 0 0   0                  0 0 0 0   0                  0 0 0 0.35 0"
   type="matrix"
   result="color-out"
   in="blur-out" />
		<feBlend
   id="feBlend575"
   mode="normal"
   in2="color-out"
   in="SourceGraphic" />
	</filter>
	
	<circle
   cx="214.22385"
   cy="248.80202"
   r="200"
   id="circle578"
   style="fill:#ffffff;stroke-width:2" /><path
   sodipodi:nodetypes="ccccc"
   d="M 317.871,7.656 C 180.751,-26.536 41.847,56.936 7.671,194.096 -26.537,331.232 56.927,470.144 194.031,504.336 331.191,538.535 470.094,455.071 504.287,317.928 538.479,180.776 455.023,41.848 317.871,7.656 Z"
   id="path599"
   style="fill:#2affff;filter:url(#dropShadowAlpha);fill-opacity:1"
   inkscape:connector-curvature="0" />
<g
   id="g924"
   transform="matrix(0.01031478,0,0,0.01031478,-521.47059,-4.9441837)"><circle
     r="24438.293"
     cy="25312.65"
     cx="75413.336"
     id="path33"
     style="fill:url(#radialGradient919);fill-opacity:1;stroke:#059e9e;stroke-width:1000;stroke-miterlimit:4;stroke-dasharray:none;stroke-opacity:1" /><path
     style="color:#000000;font-style:normal;font-variant:normal;font-weight:normal;font-stretch:normal;font-size:medium;line-height:normal;font-family:sans-serif;font-variant-ligatures:normal;font-variant-position:normal;font-variant-caps:normal;font-variant-numeric:normal;font-variant-alternates:normal;font-variant-east-asian:normal;font-feature-settings:normal;font-variation-settings:normal;text-indent:0;text-align:start;text-decoration:none;text-decoration-line:none;text-decoration-style:solid;text-decoration-color:#000000;letter-spacing:normal;word-spacing:normal;text-transform:none;writing-mode:lr-tb;direction:ltr;text-orientation:mixed;dominant-baseline:auto;baseline-shift:baseline;text-anchor:start;white-space:normal;shape-padding:0;shape-margin:0;inline-size:0;clip-rule:nonzero;display:inline;overflow:visible;visibility:visible;isolation:auto;mix-blend-mode:normal;color-interpolation:sRGB;color-interpolation-filters:linearRGB;solid-color:#000000;solid-opacity:1;vector-effect:none;fill:#ffffff;fill-opacity:1;fill-rule:nonzero;stroke:none;stroke-width:1000;stroke-linecap:butt;stroke-linejoin:miter;stroke-miterlimit:4;stroke-dasharray:none;stroke-dashoffset:0;stroke-opacity:1;color-rendering:auto;image-rendering:auto;shape-rendering:auto;text-rendering:auto;enable-background:accumulate;stop-color:#000000"
     d="m 75047.114,3649.517 c -319.086,0.7855 -896.643,135.6381 -2069.435,434.3269 -1806.446,460.0688 -2076.719,589.6454 -2076.719,995.6472 0,89.4729 281.551,1334.3897 625.667,2766.48 344.115,1432.0911 598.062,2631.3859 564.326,2665.0999 -33.738,33.715 -460.171,162.118 -947.634,285.341 -630.185,159.299 -896.338,193.767 -921.056,119.283 -19.119,-57.615 -289.512,-1278.8235 -600.871,-2713.7965 -371.377,-1711.5772 -623.628,-2682.1685 -733.327,-2821.6284 -236.945,-301.2266 -517.469,-278.5013 -2513.732,203.6386 -1793.368,433.1359 -2064.697,560.5018 -2064.697,969.2109 0,116.4007 287.25,1420.5511 638.331,2898.1119 351.081,1477.5605 616.25,2708.5495 589.266,2735.5335 -26.984,26.984 -1604.28,412.515 -3505.103,856.732 -2123.306,496.213 -3520.531,865.536 -3623.278,957.729 -126.561,113.563 -157.278,237.963 -126.292,511.459 77.358,682.79 905.873,3940.486 1035.008,4069.621 192.505,192.504 502.31,161.156 1838.04,-185.987 667.012,-173.349 1415.905,-314.671 1664.208,-314.039 550.471,1.392 1149.651,258.942 1364.199,586.385 214.776,327.787 916.165,3151.492 2118.87,8530.293 549.657,2458.203 1175.119,5180.51 1389.916,6049.572 464.849,1880.762 535.637,2330.811 416.077,2645.276 -136.857,359.96 -727.201,605.861 -2118.784,882.557 -919.833,182.894 -1304.044,299.354 -1441.685,436.996 l -187.649,187.649 159.473,2407.476 c 87.711,1324.111 199.276,2481.843 247.921,2572.739 48.646,90.895 178.696,187.459 288.999,214.587 193.019,47.474 1181.971,-167.258 5245.614,-1138.983 1036.663,-247.892 1899.013,-436.545 1916.333,-419.225 17.319,17.32 326.15,1308.077 686.289,2868.349 443.252,1920.349 706.557,2888.618 815.004,2997.065 88.115,88.115 227.251,160.206 309.194,160.206 356.326,0 3878.588,-924.453 4024.141,-1056.177 88.492,-80.085 160.893,-234.028 160.893,-342.098 0,-108.073 -286.778,-1386.848 -637.285,-2841.724 -350.508,-1454.877 -618.323,-2694.652 -595.144,-2755.054 47.923,-124.884 1791.487,-521.938 1871.563,-426.202 28.729,34.347 261.829,956.34 517.998,2048.875 256.169,1092.534 557.714,2352.031 670.1,2798.879 294.745,1171.902 217.716,1154.564 2607.171,586.787 1055.059,-250.701 1971.982,-500.38 2037.607,-554.843 206.821,-171.647 131.102,-683.075 -506.012,-3417.722 -341.31,-1464.989 -605.447,-2688.428 -586.968,-2718.751 18.479,-30.323 288.647,-126.472 600.374,-213.663 2327.661,-651.061 4381.41,-1685.534 5966.052,-3005.102 1613.442,-1343.549 2304.911,-2702.603 2602.184,-5114.468 180.908,-1467.763 -92.626,-3579.635 -651.27,-5028.248 -837.885,-2172.708 -2958.96,-3839.37 -5144.411,-4042.283 -562.845,-52.259 -742.593,17.313 -296.288,-464.086 467.079,-582.28 810.597,-1354.571 1035.57,-2328.148 374.167,-1619.212 106.664,-3616.088 -670.603,-5005.973 -434.537,-777.023 -1617.235,-2025.904 -2430.646,-2566.659 -1311.681,-872.0025 -3309.263,-1282.9755 -5622.509,-1156.7499 -695.249,37.9368 -1443.624,73.0402 -1663.059,78.0081 l -398.975,9.0308 -648.385,-2726.4684 c -356.612,-1499.558 -716.378,-2830.2377 -799.479,-2957.0667 -90.998,-138.8799 -184.685,-214.3907 -425.092,-213.7989 z m 1166.533,11627.659 c 717.97,0.335 1373.657,63.734 1740.049,187.163 569.348,191.798 1149.446,515.364 1511.377,843.005 481.003,435.432 904.36,1730.05 781.817,2390.812 -101.984,549.934 -579.638,1332.646 -1138.65,1865.854 -828.778,790.519 -2698.303,1589.716 -4860.545,2077.811 -1119.453,252.702 -1348.097,270.599 -1408.461,110.251 -172.327,-457.797 -1467.783,-6533.606 -1406.197,-6595.195 109.818,-109.816 1975.072,-578.849 2944.169,-740.337 563.071,-93.828 1222.525,-139.651 1836.441,-139.364 z m 4292.866,10895.64 c 1265.95,0.847 1785.487,151.391 2723.845,763.959 573.543,374.412 687.376,496.436 931.955,998.965 153.233,314.85 325.164,861.625 382.077,1215.054 129.437,803.896 -16.292,1313.845 -603.322,2111.278 -726.899,987.412 -1816.779,1636.111 -4027.609,2397.22 -933.969,321.531 -3920.834,1124.203 -4183.32,1124.203 -26.166,0 -86.426,-91.42 -133.923,-203.157 -144.054,-338.893 -1639.902,-7122.87 -1595.875,-7237.605 57.11,-148.822 2520.344,-746.456 4012.693,-973.567 714.719,-108.766 1718.034,-191.78 2368.598,-195.976 42.429,-0.274 84.044,-0.402 124.881,-0.374 z"
     id="path905" /><path
     style="color:#000000;font-style:normal;font-variant:normal;font-weight:normal;font-stretch:normal;font-size:medium;line-height:normal;font-family:sans-serif;font-variant-ligatures:normal;font-variant-position:normal;font-variant-caps:normal;font-variant-numeric:normal;font-variant-alternates:normal;font-variant-east-asian:normal;font-feature-settings:normal;font-variation-settings:normal;text-indent:0;text-align:start;text-decoration:none;text-decoration-line:none;text-decoration-style:solid;text-decoration-color:#000000;letter-spacing:normal;word-spacing:normal;text-transform:none;writing-mode:lr-tb;direction:ltr;text-orientation:mixed;dominant-baseline:auto;baseline-shift:baseline;text-anchor:start;white-space:normal;shape-padding:0;shape-margin:0;inline-size:0;clip-rule:nonzero;display:inline;overflow:visible;visibility:visible;isolation:auto;mix-blend-mode:normal;color-interpolation:sRGB;color-interpolation-filters:linearRGB;solid-color:#000000;solid-opacity:1;vector-effect:none;fill:#059e9e;fill-opacity:1;fill-rule:nonzero;stroke:none;stroke-width:1000;stroke-linecap:butt;stroke-linejoin:miter;stroke-miterlimit:4;stroke-dasharray:none;stroke-dashoffset:0;stroke-opacity:1;color-rendering:auto;image-rendering:auto;shape-rendering:auto;text-rendering:auto;enable-background:accumulate;stop-color:#000000"
     d="m 75045.883,3149.5176 c -458.473,1.1286 -1015.648,150.2978 -2191.606,449.7929 -908.323,231.3334 -1430.603,370.5798 -1808.533,551.7715 -188.965,90.5959 -359.499,201.9523 -483.787,379.2989 -124.288,177.3465 -160.996,392.1344 -160.996,549.1093 0,142.2997 11.409,124.1581 21.057,176.4825 9.647,52.3243 22.569,116.5375 38.933,194.6562 32.729,156.2374 79.061,366.6435 136.115,618.916 114.108,504.5451 270.889,1175.3192 443.399,1893.2461 171.177,712.3836 319.979,1367.2524 420.865,1843.6992 29.495,139.2927 54.32,261.2388 74.867,366.2518 -147.323,42.525 -326.127,91.069 -515.416,138.918 -160.364,40.537 -295.245,71.917 -403.267,94.811 -27.992,-124.649 -59.626,-266.301 -97.92,-439.2542 -108.686,-490.8723 -254.02,-1154.4405 -409.573,-1871.3398 v 0 c -186.509,-859.5741 -343.258,-1534.369 -469.498,-2020.1035 -63.119,-242.8673 -118.243,-437.8126 -168.548,-591.7715 -50.306,-153.9589 -46.825,-229.6676 -190.92,-412.8555 -90.766,-115.3894 -244.679,-255.6258 -435.619,-324.373 -190.941,-68.7472 -382.374,-74.0266 -594.866,-56.8125 -424.983,34.4281 -992.038,166.0199 -1993.623,407.9238 -901.962,217.8427 -1421.418,349.4916 -1799.941,527.1777 -189.262,88.8431 -361.375,199.9607 -486.24,377.9043 -124.865,177.9437 -161.129,392.6547 -161.129,550.1543 0,117.3738 10.386,124.636 20.254,182.045 9.867,57.4089 23.12,126.8364 39.865,210.3769 33.49,167.0811 80.828,389.2145 139.094,653.75 116.532,529.0711 276.561,1226.3965 452.66,1967.5274 174.866,735.9416 328.381,1410.7716 434.076,1901.4376 28.78,133.603 53.648,252.175 74.723,355.531 -161.872,40.967 -365.344,91.42 -601.655,149.18 -632.848,154.683 -1501.265,361.86 -2450.306,583.648 v 0 c -1064.755,248.832 -1947.974,465.911 -2583.34,633.856 -317.683,83.972 -572.683,155.354 -763.24,214.396 -95.279,29.521 -173.776,55.531 -242.897,81.877 -69.12,26.346 -93.218,-1.88 -253.939,142.332 v 0 0 c -115.861,103.962 -230.756,274.039 -273.721,448.039 -42.965,174 -33.995,328.316 -15.467,491.854 51.144,451.414 275.368,1385.493 510.336,2309.382 117.485,461.945 236.434,906.086 336.002,1249.024 49.784,171.469 94.348,316.848 134.043,432.859 19.848,58.006 37.983,107.997 58.986,157.586 21.004,49.59 -7.72,71.407 138.909,218.035 v 0 c 100.339,100.34 256.998,194.624 416.056,233.276 159.059,38.652 311.503,36.868 478.143,20.006 333.28,-33.724 749.733,-133.88 1423.16,-308.897 321.43,-83.536 666.879,-160.288 956.068,-214.859 289.19,-54.571 553.086,-83.177 581.1,-83.106 v 0 0 c 378.539,0.958 857.442,265.141 938.517,350.028 4.093,11.4 32.623,68.63 58.897,142.982 36.95,104.564 84.714,255.819 140.465,447.658 111.5,383.679 255.915,931.222 431.293,1637.268 350.754,1412.092 826.309,3460.465 1427.211,6147.849 550.129,2460.315 1173.566,5174.747 1392.472,6060.436 231.614,937.102 363.322,1515.897 418.66,1867.719 55.339,351.822 35.424,427.365 15.452,479.896 3.001,-7.894 -33.772,72.005 -313.768,188.635 -279.996,116.63 -753.895,245.753 -1435.164,381.213 -466.766,92.809 -802.764,168.881 -1061.697,247.367 -258.934,78.487 -452.588,143.028 -636.035,326.477 l -347.989,347.988 174.461,2633.736 v 0 c 44.145,666.417 94.209,1290.398 139.822,1763.737 22.807,236.669 44.37,435.058 64.346,586.996 9.988,75.968 19.363,139.702 29.844,196.838 10.481,57.135 -19.522,57.074 71.976,228.044 v 0 0 c 154.065,287.87 321.418,393.11 610.422,464.188 229.298,56.396 323.916,18.782 526.182,-12.811 202.267,-31.593 476.526,-85.823 870.646,-171.398 788.241,-171.151 2051.842,-467.957 4084.483,-954.016 515.735,-123.325 988.378,-231.956 1330.992,-306.908 35.674,-7.804 69.072,-15.017 101.84,-22.07 28.077,115.01 59.236,243.692 95.529,395.379 123.925,517.945 290.966,1229.828 470.787,2008.886 222.364,963.371 399.734,1689.15 537.766,2196.744 69.016,253.797 127.692,452.184 180.93,606.727 26.619,77.271 51.384,143.145 80.285,206.771 28.901,63.627 40.342,118.606 149.66,227.924 88.893,88.893 180.205,151.602 280.439,203.537 100.235,51.936 194.709,103.116 382.309,103.116 152.641,0 224.966,-21.875 365.121,-49.258 140.155,-27.383 311.633,-64.99 506.461,-110.172 389.656,-90.363 871.071,-210.872 1346.459,-335.643 475.388,-124.77 943.605,-253.488 1307.625,-360.974 182.01,-53.743 337.265,-101.855 459.971,-143.758 61.352,-20.952 113.959,-39.937 164.265,-60.734 50.306,-20.798 68.605,2.814 209.74,-124.913 v 0 c 224.252,-202.948 325.389,-381.438 325.389,-712.823 0,-124.074 -10.794,-124.887 -20.666,-180.64 -9.872,-55.754 -23.098,-123.313 -39.812,-204.823 -33.43,-163.019 -80.68,-380.407 -138.842,-639.759 -116.325,-518.706 -276.08,-1203.929 -451.873,-1933.61 v 0 c -174.471,-724.189 -328.42,-1395.212 -435.071,-1888.92 -36.381,-168.416 -66.763,-314.394 -90.9,-435.554 139.024,-39.725 309.204,-83.01 479.479,-121.785 164.089,-37.368 329.611,-70.875 467.566,-94.792 17.77,68.276 37.137,143.708 58.215,227.077 92.851,367.259 214.712,868.958 342.238,1412.843 256.58,1094.288 557.008,2349.486 672,2806.696 72.501,288.262 117.329,517.852 227.006,754.336 109.677,236.483 372.793,491.249 666.174,557.279 586.761,132.06 1122.042,-76.986 2314.48,-360.33 532.156,-126.45 1028.884,-252.446 1405.617,-355.031 188.367,-51.293 346.096,-96.473 468.172,-134.715 61.039,-19.121 112.548,-36.148 160.657,-54.188 48.109,-18.039 50.759,16.963 206.884,-112.607 v 0 0 c 157.139,-130.414 255.534,-361.664 275.742,-554.52 20.209,-192.855 2.2,-386.556 -36.982,-651.199 -78.364,-529.286 -258.004,-1340.438 -577.131,-2710.207 -170.143,-730.298 -321.09,-1400.62 -426.625,-1889.441 -32.894,-152.362 -60.763,-284.632 -83.935,-397.471 54.506,-16.737 111.906,-33.81 171.689,-50.531 v 0 0 c 2386.501,-667.519 4502.178,-1729.115 6151.322,-3102.395 1686.873,-1404.696 2472.476,-2954.869 2778.475,-5437.529 195.516,-1586.287 -83.373,-3719.614 -681.002,-5269.318 -873.871,-2266.022 -2986.459,-3998.606 -5286.996,-4327.473 406.313,-605.491 701.618,-1345.168 902.517,-2214.564 406.24,-1758.009 131.621,-3837.3 -721.371,-5362.594 -511.781,-915.149 -1667.331,-2125.453 -2590.23,-2738.996 -1446.267,-961.475 -3538.723,-1369.9192 -5926.563,-1239.6233 -687.872,37.5343 -1443.753,72.5074 -1641.908,77.2324 l -554.834,-2333.084 c -179.36,-754.2119 -359.319,-1465.3275 -506.07,-2008.123 -73.376,-271.3978 -138.248,-500.2074 -192.047,-675.3828 -26.899,-87.5877 -50.799,-161.3451 -73.662,-224.9785 -22.864,-63.6335 -21.013,-92.6177 -95.912,-206.9297 v 0 c -65.843,-100.4881 -170.996,-232.5105 -331.209,-321.8574 -160.214,-89.347 -340.622,-118.3373 -513.334,-117.9121 z m 2.463,999.998 c 0.854,0 1.363,0.027 2.191,0.027 13.79,39.4493 32.154,95.6364 53.529,165.2363 48.174,156.8589 111.113,378.2224 182.643,642.793 143.06,529.141 321.289,1233.1441 498.541,1978.4902 l 741.928,3119.8109 803.183,-18.182 c 247.001,-5.592 981,-40.535 1678.985,-78.6211 v 0 c 2238.651,-122.1552 4141.357,291.3461 5318.453,1073.8751 703.922,467.967 1913.77,1755.425 2271.062,2394.323 701.542,1254.475 961.93,3168.938 619.836,4649.353 -211.244,914.165 -526.619,1609.609 -929.033,2115.924 -111.192,119.889 -193.016,208.461 -269.5,336.205 -39.916,66.668 -89.382,148.451 -99.539,299.705 -10.157,151.254 84.334,370.704 200.328,466.834 231.988,192.259 343.086,146.838 452.436,157.092 109.349,10.254 218.861,15.012 346.964,26.906 1964.151,182.366 3957.28,1735.84 4724.124,3724.33 519.659,1347.522 787.836,3437.938 621.537,4787.178 -288.548,2341.07 -885.882,3509.005 -2425.893,4791.406 -1520.14,1265.856 -3511.96,2273.206 -5780.781,2907.809 -165.692,46.344 -319.089,94.479 -443.113,138.617 -62.013,22.069 -115.621,42.415 -168.622,66.074 -26.5,11.83 -52.171,23.621 -87.748,44.393 -35.576,20.772 -80.544,1.086 -193.173,185.904 -132.199,216.93 -73.609,229.56 -73.922,261.617 -0.314,32.058 1.365,48.247 2.756,63.473 2.78,30.451 6.076,52.319 10.029,77.646 7.906,50.655 18.791,110.063 33.16,184.192 28.739,148.257 71.145,351.795 124.766,600.158 107.241,496.726 259.018,1170.62 430.185,1905.311 317.987,1364.878 494.763,2176.762 561.832,2629.763 18.284,123.494 26.996,219.425 30.684,288.037 -97.84,29.649 -226.167,66.339 -378.678,107.867 -361.899,98.546 -851.161,222.74 -1374.064,346.991 -1103.216,262.143 -1715.822,353.394 -1841.092,358.056 -0.45,-1.011 -0.698,-1.754 -1.197,-2.83 -33.448,-72.119 -89.522,-279.826 -164.393,-577.513 v 0 c -109.78,-436.488 -412.444,-1700.284 -668.201,-2791.063 -128.643,-548.649 -251.416,-1054.214 -346.34,-1429.672 -47.462,-187.729 -87.81,-342.463 -119.438,-457.076 -15.813,-57.306 -29.183,-103.942 -42.007,-144.762 -6.413,-20.409 -12.321,-38.741 -21.248,-62.49 -8.928,-23.748 32.761,-12.084 -92.237,-161.525 v 0 c -175.512,-209.835 -285.81,-178.362 -350.293,-187.07 -64.482,-8.709 -107.849,-7.677 -152.15,-6.127 -88.603,3.098 -174.915,13.538 -273.049,27.918 -196.267,28.759 -431.204,75.25 -666.891,128.921 -235.686,53.672 -468.688,113.766 -659.722,173.143 -95.517,29.689 -179.025,58.006 -260.207,93.041 -40.591,17.517 -79.959,35.29 -131.822,68.061 -51.863,32.77 -141.873,46.153 -227.762,269.974 -81.538,212.481 -35.328,200.245 -33.26,234.328 2.068,34.083 5.307,59.851 9.182,88.309 7.749,56.916 18.708,120.871 33.179,198.967 28.944,156.191 71.876,365.203 126.42,617.703 109.09,504.999 264.303,1181.302 440.34,1911.99 174.713,725.196 333.602,1406.797 448.293,1918.217 57.346,255.709 103.695,469.207 134.99,621.818 11.029,53.78 19.394,96.679 26.364,133.582 -3.276,1.13 -5.451,1.972 -8.834,3.127 -99.17,33.866 -245.755,79.587 -419.993,131.035 -348.476,102.897 -810.386,229.991 -1278.298,352.799 -467.912,122.808 -942.973,241.646 -1318.506,328.735 -187.767,43.544 -351.061,79.187 -472.301,102.875 -36.629,7.156 -70.696,12.38 -101.521,16.759 -5.913,-15.882 -12.195,-33.143 -19.073,-53.109 -40.484,-117.52 -95.671,-301.556 -161.443,-543.426 -131.545,-483.739 -307.454,-1202.268 -528.342,-2159.246 -180.318,-781.213 -347.764,-1494.845 -472.619,-2016.676 -62.427,-260.915 -114.135,-473.616 -151.941,-624.599 -18.904,-75.492 -34.189,-135.096 -46.534,-180.791 -6.172,-22.848 -11.334,-41.522 -17.674,-62.235 -3.169,-10.356 -6.189,-20.425 -13.009,-38.959 -3.411,-9.266 -7.29,-20.138 -17.071,-41.23 -9.78,-21.093 3.594,-40.281 -101.068,-144.949 v 0 0 c -224.022,-224.022 -284.397,-143.724 -324.674,-146.385 -40.276,-2.661 -58.251,-0.925 -74.431,0.131 -32.36,2.112 -50.867,4.912 -71.565,7.937 -41.395,6.051 -84.616,13.891 -138.23,24.198 -107.229,20.613 -251.394,50.872 -427.422,89.381 -352.057,77.017 -828.921,186.659 -1349.85,311.226 -2031,485.666 -3293.698,782.09 -4064.099,949.367 -385.201,83.639 -648.347,134.922 -812.783,160.606 -32.514,5.078 -62.404,7.988 -88.664,9.717 -1.363,-9.924 -2.566,-17.613 -3.973,-28.315 -17.365,-132.08 -38.297,-322.923 -60.426,-552.562 -44.258,-459.279 -93.832,-1076.22 -137.398,-1733.914 l -144.485,-2181.215 27.26,-27.26 c -45.666,45.672 21.618,-16.782 219.057,-76.629 197.54,-59.877 513.564,-133.483 966.631,-223.568 v 0 c 710.314,-141.236 1227.376,-273.412 1624.662,-438.897 397.285,-165.485 724.113,-388.515 863.972,-756.369 v 0 c 99.587,-261.934 104.06,-568.648 37.682,-990.656 -66.378,-422.009 -202.49,-1008.619 -435.725,-1952.279 -210.687,-852.435 -838.174,-3582.618 -1387.359,-6038.709 -601.803,-2691.417 -1078.295,-4744.298 -1432.606,-6170.706 -177.155,-713.203 -323.527,-1269.22 -441.527,-1675.263 -59,-203.022 -110.662,-368.17 -157.877,-501.779 -47.214,-133.609 -73.751,-221.04 -156.59,-347.467 v 0 c -382.558,-583.859 -1075.64,-810.568 -1781.146,-812.354 v 0 c -220.286,-0.559 -454.987,41.179 -769.068,100.448 -314.086,59.269 -676.588,139.853 -1022.17,229.666 -662.303,172.126 -1068.62,261.216 -1272.301,281.826 -22.139,2.24 -41.066,3.48 -57.871,4.248 -29.185,-88.144 -65.946,-207.644 -107.252,-349.914 -94.515,-325.537 -211.739,-762.708 -327.195,-1216.678 -230.912,-907.94 -459.628,-1944.105 -485.842,-2175.481 -2.916,-25.735 -4.589,-47.555 -5.606,-66.207 27.679,-9.177 58.63,-19.179 93.95,-30.123 166.672,-51.641 412.952,-120.889 722.832,-202.798 619.758,-163.819 1496.804,-379.508 2555.355,-626.889 951.782,-222.429 1822.424,-430.126 2460.176,-586.008 318.876,-77.941 579.204,-142.837 764.517,-190.736 92.657,-23.95 166.021,-43.468 222.43,-59.438 28.205,-7.984 51.415,-14.748 76.684,-23.011 12.634,-4.132 25.042,-8.154 46.267,-16.649 21.226,-8.495 11.303,49.28 174.801,-114.219 205.043,-205.042 142.431,-272.973 146.195,-315.695 3.765,-42.722 2.245,-63.207 1.307,-81.883 -1.877,-37.351 -5.124,-61.243 -8.846,-88.445 -7.444,-54.405 -17.95,-114.918 -32.011,-190.275 -28.124,-150.715 -70.313,-355.864 -124.27,-606.346 -107.914,-500.965 -262.523,-1180.411 -438.738,-1922.0299 -174.982,-736.4299 -334.119,-1429.9605 -448.983,-1951.455 -57.431,-260.7473 -103.846,-478.8231 -135.187,-635.1817 -15.67,-78.1793 -27.604,-141.2788 -34.816,-183.2422 -0.02,-0.1213 -0.03,-0.2534 -0.05,-0.375 15.526,-9.3611 36.631,-21.0579 66.553,-35.1035 205.483,-96.4581 718.375,-245.0603 1609.781,-460.3535 994.678,-240.236 1566.017,-361.0773 1839.597,-383.2402 69.721,-5.6481 116.107,-4.4127 143.834,-2.295 14.167,28.6193 32.395,67.6922 46.28,110.1875 39.45,120.7369 91.168,301.5625 151.246,532.7227 120.154,462.3204 275.219,1128.6102 460.086,1980.6133 155.807,718.0736 301.348,1382.5937 410.478,1875.4735 54.565,246.439 100.001,449.856 133.25,596.392 16.625,73.268 30.163,132.166 40.572,176.328 10.41,44.162 0.588,26.475 30.647,117.057 v 0 0 c 47.147,142.072 165.407,255.346 257.717,305.217 92.309,49.87 162.769,61.45 220.929,68.673 116.322,14.448 198.125,4.879 293.6,-7.486 190.95,-24.729 422.898,-76.77 745.898,-158.418 v 0 c 250.153,-63.234 483.794,-127.481 665.586,-182.221 90.897,-27.369 168.059,-51.982 234.02,-75.554 32.981,-11.787 62.531,-22.833 96.646,-37.862 34.116,-15.028 47.922,13.481 182.278,-120.783 v 0 0 c 159.837,-159.733 136.269,-239.097 143.287,-285.584 7.017,-46.486 6.435,-70.704 6.26,-91.97 -0.352,-42.533 -3.328,-68.814 -6.596,-97.729 -6.537,-57.831 -16.28,-118.77 -29.438,-193.896 -26.314,-150.254 -66.424,-351.3995 -118.265,-596.2255 -103.683,-489.6518 -253.913,-1150.476 -426.85,-1870.1836 -171.606,-714.1634 -327.659,-1381.8931 -440.355,-1880.1972 -56.349,-249.1521 -101.912,-456.2578 -132.727,-603.3594 -13.736,-65.5724 -24.008,-117.0568 -31.225,-155.2519 16.145,-9.9742 38.171,-22.4814 69.579,-37.5391 208.818,-100.1142 724.896,-255.6923 1623.019,-484.4277 1169.626,-297.8825 1767.567,-418.419 1947.266,-418.8614 z m -6555.93,1536.5196 c 0.05,0.01 0.07,0.01 0.119,0.016 0.938,1.2183 1.417,1.9192 2.539,3.3457 -1.136,-1.4441 -1.575,-1.9853 -2.658,-3.3613 z m 8815.533,3351.9062 c -0.05,0 -0.166,0.01 -0.22,0.01 h 10e-4 z m -5455.271,1027.2676 c 5.784,0.22 5.384,5.58 6.297,5.178 2.433,-1.072 -10.677,4.408 -30.036,11.326 -4.066,1.453 -9.623,3.315 -14.281,4.932 21.792,-17.146 32.679,-21.639 38.02,-21.436 z m -6527.008,1654.467 c 9.499,-1.042 11.993,4.709 15.373,6.312 -6.789,2.037 -9.083,2.82 -20.4,6.024 -9.266,2.623 -24.415,6.661 -36.151,9.881 20.966,-15.668 33.518,-21.377 41.178,-22.217 z m -6636.447,2699.961 c -65.546,54.006 -33.341,12.642 -4.19,1.531 1.165,-0.444 2.962,-1.069 4.19,-1.531 z m 17524.658,357.539 c -638.964,-0.299 -1319.389,46.27 -1918.86,146.164 h -10e-4 c -510.663,85.095 -1222.49,244.057 -1834.061,397.842 -305.786,76.892 -584.533,152.07 -802.164,217.679 -108.816,32.805 -201.556,62.743 -282.209,92.827 -40.327,15.041 -77.2,29.659 -118.303,49.265 -41.103,19.607 -78.286,21.858 -178.797,122.367 v 0 0 c -221.35,221.36 -143.436,279.621 -146.741,320.822 -3.304,41.202 -1.898,61.265 -0.976,80.147 1.844,37.762 5.116,64.339 9.08,95.285 7.927,61.891 19.588,134.477 35.166,224.678 31.156,180.401 77.838,426.685 135.99,721.484 116.305,589.598 278.171,1370.636 447.416,2164.412 169.246,793.777 345.732,1599.621 491.246,2238.053 72.757,319.216 137.702,596.341 190.692,811.256 52.989,214.915 80.55,337.54 129.941,468.75 v 0 0 c 52.84,140.361 224.248,322.267 387.988,380.706 163.741,58.439 290.422,51.995 426.045,41.378 271.247,-21.232 608.081,-93.362 1172.467,-220.765 2216.211,-500.278 4116.817,-1270.18 5095.551,-2203.733 v 0 c 632.914,-603.698 1147.652,-1394.978 1285.164,-2136.484 v 0 c 90.77,-489.448 -13.116,-1013.21 -180.961,-1526.482 -167.846,-513.274 -387.747,-991.982 -756.916,-1326.176 -437.572,-396.115 -1054.11,-732.856 -1687.311,-946.164 -488.333,-164.508 -1152.177,-212.98 -1899.439,-213.328 z m -0.467,1000 c 688.678,0.321 1336.207,78.648 1580.658,160.998 v 0 c 505.495,170.287 1049.152,480.677 1335.442,739.844 111.833,101.238 344.113,487.554 477.56,895.638 133.448,408.084 179.969,862.012 148.197,1033.324 v 0 0 c -66.457,358.361 -507.027,1132.503 -992.136,1595.219 -678.823,647.486 -2517.265,1475.977 -4625.537,1951.889 -421.637,95.179 -717.259,154.424 -895.67,182.183 -9.628,-36.711 -19.582,-75.332 -29.658,-116.199 -50.6,-205.222 -114.655,-478.358 -186.618,-794.09 -143.926,-631.462 -319.765,-1434.256 -488.226,-2224.355 -168.461,-790.099 -329.681,-1568.173 -444.338,-2149.418 -43.708,-221.576 -80.554,-414.291 -108.326,-566.981 189.927,-56.312 442.825,-124.53 720.062,-194.244 590.785,-148.558 1296.132,-304.857 1754.567,-381.25 526.671,-87.762 1165.155,-132.84 1754.023,-132.564 z m -4496.896,795.207 c -22.783,15.742 -26.938,10.78 -27.698,11.142 -1.028,0.491 10.996,-4.649 27.698,-11.142 z m -11983.614,1722.015 c 48.396,56.562 17.198,43.299 13.016,33.424 -2.664,-6.289 -7.234,-17.907 -13.016,-33.424 z m 26889.555,2140.623 c 5.409,0.04 19.834,5.801 44.963,21.78 -0.187,-0.02 -0.482,-0.03 -0.668,-0.05 -34.353,-3.221 -54.398,-21.81 -44.295,-21.727 z m -6115.611,5237.795 c -42.113,-0.03 -84.914,0.104 -128.446,0.385 -689.78,4.449 -1694.478,88.113 -2440.591,201.656 v 0 c -770.214,117.214 -1764.984,325.053 -2587.227,524.547 -411.121,99.747 -777.127,196.853 -1055.742,282.373 -139.308,42.76 -255.296,81.593 -356.447,123.034 -50.576,20.72 -96.51,40.648 -152.52,73.427 -56.01,32.779 -151.113,21.572 -252.34,285.358 v 0 0 c -58.794,153.218 -34.406,166.424 -34.107,194.636 0.299,28.213 1.888,45.22 3.465,61.78 3.153,33.119 7.198,61.494 12.281,94.744 10.167,66.499 24.726,148.64 43.764,250.16 38.076,203.04 93.844,480.522 162.343,810.931 136.999,660.82 324.63,1531.4 518.202,2409.284 193.571,877.883 392.957,1762.496 553.478,2451.013 80.261,344.259 150.723,639.214 206.484,862.002 27.881,111.394 51.996,204.492 72.651,279.334 20.655,74.843 26.701,110.765 63.972,198.448 v 0 10e-4 c 34.325,80.749 70.664,151.782 117.653,223.065 23.494,35.641 47.519,70.781 93.353,117.732 45.835,46.951 85.373,166.758 383.069,166.758 160.225,0 200.938,-21.133 318.558,-45.58 117.62,-24.447 263.18,-57.99 432.151,-98.904 337.941,-81.829 767.818,-192.951 1218.908,-314.174 902.18,-242.447 1875.443,-520.294 2376.459,-692.775 v 0 c 2245.688,-773.11 3461.134,-1478.194 4267.51,-2573.567 v 0 0 c 623.941,-847.574 838.377,-1592.368 694.302,-2487.178 v 0 0 c -69.173,-429.563 -237.627,-967.035 -426.136,-1354.367 v 0 0 c -257.357,-528.783 -518.391,-813.801 -1108.215,-1198.842 v 0 c -977.696,-638.248 -1691.33,-844.401 -2996.823,-845.276 z m -0.678,1000 v 0 0 c 1226.402,0.821 1551.841,95.756 2450.859,682.643 v 0 c 557.261,363.783 523.892,322.814 755.693,799.09 117.957,242.369 293.365,798.442 338.018,1075.736 114.796,712.975 37.772,988.079 -512.344,1735.367 -647.422,879.449 -1611.737,1471.764 -3787.705,2220.871 -432.954,149.05 -1420.106,433.305 -2310.471,672.577 -445.182,119.636 -869.612,229.275 -1194.718,307.996 -85.356,20.668 -163.428,39.056 -233.28,55.011 -12.776,-48.712 -26.73,-102.882 -42.716,-166.753 -53.444,-213.526 -123.133,-505.064 -202.678,-846.252 -159.09,-682.378 -357.924,-1564.474 -550.818,-2439.288 -192.895,-874.814 -379.973,-1742.923 -515.565,-2396.959 -60.555,-292.09 -110.056,-538.239 -145.676,-724.541 11.331,-3.551 21.674,-6.93 33.494,-10.558 245.939,-75.49 599.721,-169.892 998.09,-266.545 796.739,-193.306 1779.76,-397.839 2501.895,-507.736 683.323,-103.989 1685.252,-186.352 2296.599,-190.295 v 0 0 c 41.324,-0.267 81.75,-0.391 121.309,-0.364 z m -6152.129,1043.262 c -28.986,24.384 -49.76,22.61 -59.295,24.119 5.538,-2.605 12.925,-6.007 22.758,-10.035 9.939,-4.072 23.084,-9.039 36.537,-14.084 z m 1733.441,6730.475 c 1.036,1.636 1.417,2.476 1.155,2.078 -0.08,-0.116 -1.004,-1.831 -1.155,-2.078 z m 8014.174,3974.033 c 2.134,5.746 3.744,12.948 3.994,22.316 -1.525,-8.368 -2.693,-14.975 -3.994,-22.316 z m -193.396,366.094 c -15.539,10.611 -25.856,12.141 -33.588,13.234 9.533,-3.882 18.892,-7.66 33.588,-13.234 z m -5514.824,1048.14 c 0.745,2.203 1.863,5.504 3.306,10.098 2.83,9.006 6.995,23.038 11.594,38.812 -38.43,-55.103 -14.583,-45.297 -14.9,-48.91 z m -912.877,228.539 c 2.072,4.571 23.333,-4.392 8.853,59.928 -2.917,-17.949 -5.774,-35.682 -7.25,-46.519 -0.829,-6.094 -1.277,-10.344 -1.603,-13.409 z m 1293.38,64.041 c 3.385,0.1 3.698,0.231 0,0 z m -13536.316,2073.299 c 36.489,73.763 5.721,32.058 1.303,7.973 -0.354,-1.93 -0.925,-5.837 -1.303,-7.973 z m 19229.428,1862.985 c 5.035,0.06 -9.733,15.498 -19.092,19.007 -4.962,1.861 -14.749,5.172 -22.416,7.854 25.512,-19.251 38.317,-26.901 41.508,-26.861 z m -6656.572,1499.318 c 6.616,-1.438 -4.316,11.935 -13.043,15.543 -4.686,1.937 -14.31,5.506 -21.819,8.387 19.856,-15.915 30.989,-23.088 34.862,-23.93 z m -3701.631,1006.041 c 10.156,2.899 6.982,5.378 1.603,4.15 -0.538,-1.388 -1.05,-2.711 -1.603,-4.15 z m 13.076,32.666 c 22.577,28.295 11.378,25.808 5.73,13.373 -1.505,-3.315 -3.619,-8.341 -5.73,-13.373 z"
     id="path907" /></g></svg>
